<?xml version="1.0" encoding="utf-8"?>
<!-- Generator: Adobe Illustrator 16.0.0, SVG Export Plug-In . SVG Version: 6.00 Build 0)  -->
<!DOCTYPE svg PUBLIC "-//W3C//DTD SVG 1.1//EN" "http://www.w3.org/Graphics/SVG/1.1/DTD/svg11.dtd">
<svg version="1.1" id="Layer_1" xmlns="http://www.w3.org/2000/svg" xmlns:xlink="http://www.w3.org/1999/xlink" x="0px" y="0px"
	 width="165px" height="165px" viewBox="0 0 165 165" enable-background="new 0 0 165 165" xml:space="preserve">
<g>
	<defs>
		<rect id="SVGID_1_" width="165" height="165"/>
	</defs>
	<clipPath id="SVGID_2_">
		<use xlink:href="#SVGID_1_"  overflow="visible"/>
	</clipPath>
	<path clip-path="url(#SVGID_2_)" fill="#F8555A" d="M165,82.5c0,45.566-36.935,82.5-82.5,82.5C36.937,165,0,128.065,0,82.5
		C0,36.937,36.937,0.001,82.5,0.001C128.065,0.001,165,36.937,165,82.5"/>
	<path clip-path="url(#SVGID_2_)" fill="#FFFFFF" d="M32.771,32.032l0.326-0.326h14.602c10.235,0,17.146,5.607,17.146,16.167v11.865
		c0,10.496-6.911,15.971-17.146,15.971H33.097l-0.326-0.326V32.032z M47.698,70.495c6.649,0,11.541-3.586,11.541-11.343V48.33
		c0-7.562-4.892-11.408-11.541-11.408h-9.454v33.573H47.698z"/>
	<path clip-path="url(#SVGID_2_)" fill="#FFFFFF" d="M68.522,72.123l2.67-3.649l0.589-0.066c1.888,1.631,6.06,2.87,8.931,2.87
		c4.627,0,8.537-2.021,8.537-7.497c0-10.496-19.489-5.868-19.489-20.208c0-7.824,5.996-12.518,13.036-12.518
		c6.52,0,10.626,2.672,11.215,3.261l0.063,0.456l-2.478,3.781l-0.52,0.065c-1.828-1.37-4.629-2.348-8.017-2.348
		c-5.219,0-7.696,2.999-7.696,7.105c0,9.779,19.493,5.282,19.493,20.34c0,9.777-7.759,12.776-14.343,12.776
		c-3.063,0-8.474-1.239-11.863-3.912L68.522,72.123z"/>
	<path clip-path="url(#SVGID_2_)" fill="#FFFFFF" d="M32.771,81.964l0.159-0.159h7.161c5.021,0,8.411,2.75,8.411,7.931v5.818
		c0,5.148-3.389,7.832-8.411,7.832H32.93l-0.159-0.158V81.964z M40.091,100.829c3.263,0,5.66-1.758,5.66-5.564v-5.306
		c0-3.71-2.397-5.596-5.66-5.596h-4.636v16.466H40.091z"/>
	<polygon clip-path="url(#SVGID_2_)" fill="#FFFFFF" points="53.741,82.125 53.9,81.932 56.266,81.613 56.425,81.74 56.425,103.228 
		56.266,103.388 53.9,103.388 53.741,103.228 	"/>
	<path clip-path="url(#SVGID_2_)" fill="#FFFFFF" d="M61.7,89.413c0-5.179,3.355-7.927,8.376-7.927c3.518,0,6.331,1.597,7.482,4.41
		l-0.097,0.194l-2.141,0.893l-0.225-0.062c-0.863-1.76-2.717-2.879-5.019-2.879c-3.261,0-5.627,1.886-5.627,5.598v6.01
		c0,3.805,2.366,5.561,5.627,5.561c3.326,0,5.692-1.756,5.692-5.561v-0.734h-3.679l-0.19-0.162l-0.321-2.236l0.131-0.162h6.586
		l0.159,0.162v3.418c0,5.148-3.198,7.836-8.378,7.836c-5.021,0-8.376-2.688-8.376-7.836V89.413z"/>
	<polygon clip-path="url(#SVGID_2_)" fill="#FFFFFF" points="83.277,82.125 83.437,81.932 85.803,81.613 85.962,81.74 
		85.962,103.228 85.803,103.388 83.437,103.388 83.277,103.228 	"/>
	<polygon clip-path="url(#SVGID_2_)" fill="#FFFFFF" points="95.584,84.363 89.638,84.363 89.479,84.201 89.479,81.963 
		89.638,81.805 104.635,81.805 104.762,81.963 104.187,84.201 103.996,84.363 98.271,84.363 98.271,103.228 98.112,103.386 
		95.744,103.386 95.584,103.228 	"/>
	<path clip-path="url(#SVGID_2_)" fill="#FFFFFF" d="M111.698,82.125l0.19-0.162l2.686-0.35l0.192,0.127l7.577,21.487l-0.095,0.158
		h-2.56l-0.191-0.158l-1.759-5.147h-8.919l-1.728,5.147l-0.161,0.158h-2.589l-0.097-0.158L111.698,82.125z M116.938,95.65
		l-3.323-9.849l-0.32-1.375l-0.318,1.375l-3.326,9.849H116.938z"/>
	<polygon clip-path="url(#SVGID_2_)" fill="#FFFFFF" points="125.697,82.125 125.856,81.932 128.222,81.613 128.382,81.74 
		128.382,100.829 137.59,100.829 137.718,100.989 137.142,103.228 136.951,103.388 125.856,103.388 125.697,103.228 	"/>
	<path clip-path="url(#SVGID_2_)" fill="#FFFFFF" d="M32.771,128.908l1.311-1.789l0.286-0.033c0.929,0.799,2.976,1.405,4.382,1.405
		c2.269,0,4.187-0.988,4.187-3.675c0-5.149-9.559-2.878-9.559-9.912c0-3.835,2.942-6.139,6.395-6.139
		c3.196,0,5.212,1.311,5.499,1.599l0.031,0.224l-1.214,1.854l-0.256,0.032c-0.896-0.671-2.27-1.15-3.933-1.15
		c-2.557,0-3.775,1.471-3.775,3.483c0,4.796,9.563,2.59,9.563,9.977c0,4.795-3.807,6.268-7.035,6.268
		c-1.503,0-4.156-0.607-5.819-1.92L32.771,128.908z"/>
	<path clip-path="url(#SVGID_2_)" fill="#FFFFFF" d="M49.746,116.693c0-5.181,3.356-7.928,8.376-7.928
		c3.518,0,6.331,1.597,7.482,4.411l-0.095,0.193l-2.143,0.895L63.14,114.2c-0.862-1.758-2.716-2.878-5.018-2.878
		c-3.261,0-5.628,1.886-5.628,5.597v6.01c0,3.805,2.367,5.562,5.628,5.562c2.622,0,4.51-1.053,5.403-2.973l0.223-0.063l2.079,0.8
		l0.096,0.191c-1.054,3.038-3.867,4.605-7.801,4.605c-5.02,0-8.376-2.688-8.376-7.835V116.693z"/>
	<path clip-path="url(#SVGID_2_)" fill="#FFFFFF" d="M69.788,116.693c0-5.181,3.389-7.928,8.411-7.928
		c5.018,0,8.407,2.747,8.407,7.928v6.523c0,5.147-3.39,7.835-8.407,7.835c-5.021,0-8.411-2.688-8.411-7.835V116.693z
		 M78.198,128.491c3.26,0,5.657-1.758,5.657-5.562v-6.01c0-3.711-2.397-5.595-5.657-5.595c-3.264,0-5.66,1.884-5.66,5.595v6.01
		C72.538,126.733,74.935,128.491,78.198,128.491"/>
	<path clip-path="url(#SVGID_2_)" fill="#FFFFFF" d="M91.845,109.243l0.159-0.159h5.692c1.694,0,3.358,0.289,4.699,1.12
		c1.568,0.992,2.655,2.688,2.655,5.244c0,5.946-6.235,6.233-6.235,6.233l0.703,0.704l3.742,4.51c0.544,0.64,1.342,1.342,2.557,1.342
		c0.127,0,0.223-0.033,0.353-0.033l0.128,0.16l-0.354,2.175l-0.19,0.16c-0.223,0.031-0.448,0.063-0.671,0.063
		c-2.207,0-3.676-1.918-4.252-2.652l-4.989-6.205l-0.223-0.127h-1.088v8.73l-0.159,0.158h-2.368l-0.159-0.158V109.243z
		 M97.663,119.317c2.335,0,4.701-0.896,4.701-3.869c0-2.911-2.366-3.902-4.701-3.902h-3.132v7.771H97.663z"/>
	<polygon clip-path="url(#SVGID_2_)" fill="#FFFFFF" points="110.48,109.243 110.643,109.085 121.737,109.085 121.896,109.243 
		121.896,111.482 121.737,111.644 113.167,111.644 113.167,118.039 120.616,118.039 120.745,118.197 120.17,120.437 
		119.979,120.594 113.167,120.594 113.167,128.11 121.771,128.11 121.896,128.268 121.575,130.507 121.385,130.667 110.643,130.667 
		110.48,130.507 	"/>
	<path clip-path="url(#SVGID_2_)" fill="#FFFFFF" d="M164.324,92.903l-62.177-62.252l-1.047,1.046l62.987,63.062
		C164.181,94.145,164.246,93.521,164.324,92.903"/>
</g>
</svg>
